# xmcd
#
# Track frame offsets:
#	150
#	16999
#	33165
#	51968
#	67501
#	79441
#	94118
#	111246
#	129320
#	148256
#	160190
#	172441
#	188364
#	202533
#	220160
#	231890
#	248350
#	265444
#	278645
#	299687
#	315324
#	331027
#	345678
#
# Disc length: 4765
#
# Revision: 2
# Processed by: cddbd v1.5.1PL0 Copyright (c) Steve Scherf et al.
# Submitted via: dBpowerAMP V4.0
# Normalized: r0:DSETVAR1,TDELIM( - );r1:TRMNUM
#
DISCID=43129b17
DTITLE=Various Artist - Puras Matonas Texanas II
DYEAR=2000
DGENRE=Texano
TTITLE0=Hasta la cima del cielo - Solido
TTITLE1=Sabes amor - Los Garcia
TTITLE2=Luna de Miel - La Tropa F
TTITLE3=Amigos - Alma Pulido
TTITLE4=Escandalo - Los Tremendos
TTITLE5=El Triste - Angel Flores
TTITLE6=Esa Mujer - Ricky Naranjos
TTITLE7=El Pintor - The Hometown Boys
TTITLE8=El Soñador - David Olivares
TTITLE9=Desprecio - Ricky Naranjo
TTITLE10=Prisionero En Tus Brazos - Jan Lee Grand
TTITLE11=Angel Mio - Guess Who
TTITLE12=Un Rinconcito En El Cielo - The Hometow Boys
TTITLE13=Mi Vida de Borracho - Tony De La Rosa
TTITLE14=Por Que Nos Dijimos Adios - Inovacion
TTITLE15=Ex Novia - Jaime Y Los Chamacos
TTITLE16=Infireno En El Cielo - Jody Farias
TTITLE17=Niña Mujer - Los 2 Gilbertos
TTITLE18=Te He Prometido - Los Tremendos
TTITLE19=Ahora - Raul Ruiz
TTITLE20=Obsecion - Roberto Pulido
TTITLE21=Descalzo A Laredo - Tejano Boys
TTITLE22=Señora Tentacion - The Hometow Boys
EXTD=
EXTT0=
EXTT1=
EXTT2=
EXTT3=
EXTT4=
EXTT5=
EXTT6=
EXTT7=
EXTT8=
EXTT9=
EXTT10=
EXTT11=
EXTT12=
EXTT13=
EXTT14=
EXTT15=
EXTT16=
EXTT17=
EXTT18=
EXTT19=
EXTT20=
EXTT21=
EXTT22=
PLAYORDER=
